<svg width="97" height="89" viewBox="0 0 97 89" fill="none" xmlns="http://www.w3.org/2000/svg">
<path d="M97 89C64.6671 89 32.3329 89 0 89C0 59.3329 0 29.6671 0 0C32.3329 0 64.6671 0 97 0C97 29.6671 97 59.3329 97 89ZM40.0894 4.80885C29.6016 4.80885 19.1137 4.80885 8.6259 4.81004C8.2521 4.81004 7.87593 4.81123 7.5033 4.83737C3.85161 5.09047 1.18411 7.94821 1.18293 11.6258C1.1782 26.0025 1.1782 40.3791 1.18293 54.757C1.18411 58.5701 4.13315 61.5217 7.93981 61.5455C9.14284 61.5526 10.3459 61.5657 11.5477 61.5371C11.9866 61.5265 12.261 61.6583 12.5296 62.0196C15.8761 66.5278 19.3054 70.9742 22.5643 75.5443C23.7532 77.2126 27.3114 77.3005 28.5192 75.2876C31.1831 70.8459 34.0612 66.5349 36.8269 62.1538C37.1202 61.6881 37.4361 61.5443 37.9637 61.5443C49.2795 61.5585 60.5954 61.5573 71.9113 61.5538C76.0504 61.5526 78.913 58.6794 78.9154 54.5383C78.9178 50.9142 78.9166 47.29 78.9166 43.667C78.9166 32.993 78.9166 22.3201 78.9166 11.646C78.9166 9.17449 77.8768 7.25665 75.8422 5.89016C74.6025 5.0572 73.2066 4.80172 71.7327 4.80291C61.1833 4.81242 50.6364 4.80885 40.0894 4.80885ZM73.5414 76.2406C73.3852 75.9803 73.2729 75.8021 73.1688 75.6179C71.4571 72.5879 69.7371 69.5626 68.042 66.523C67.5345 65.614 66.7833 65.1257 65.7802 65.0116C65.2349 64.9486 64.6836 64.9082 64.1347 64.907C59.1274 64.8987 54.1213 64.8999 49.1139 64.9058C48.4645 64.907 47.8092 64.9082 47.1657 64.9855C45.2304 65.2148 43.9304 67.0886 44.3574 68.9899C44.7075 70.5488 46.0466 71.5684 47.8092 71.5719C52.5988 71.5814 57.3897 71.5814 62.1794 71.5672C62.6076 71.566 62.8454 71.6967 63.0595 72.0793C65.514 76.4616 68.0077 80.8213 70.4468 85.2119C71.1897 86.5498 72.3727 86.8802 73.7271 86.9051C74.9869 86.9289 75.8646 86.3193 76.488 85.2083C78.9367 80.845 81.4268 76.5067 83.879 72.147C84.1286 71.7038 84.403 71.5541 84.8987 71.5648C86.356 71.5969 87.8169 71.6028 89.2743 71.5636C92.9781 71.4626 95.8147 68.5383 95.8159 64.8167C95.8218 50.4211 95.8218 36.0266 95.8159 21.6309C95.8147 17.8214 92.9272 14.8935 89.1288 14.8448C87.0196 14.8187 84.9105 14.8365 82.8013 14.8377C82.6511 14.8377 82.4997 14.8662 82.3554 14.8817C82.3554 17.1049 82.3554 19.2889 82.3554 21.5323C84.6053 21.5323 86.8032 21.5323 89.0141 21.5323C89.0141 36.0147 89.0141 50.4353 89.0141 64.9082C86.6423 64.9082 84.319 64.9165 81.9946 64.9046C80.678 64.8987 79.7009 65.4085 79.0384 66.5955C77.3516 69.6172 75.6257 72.6164 73.914 75.6239C73.8099 75.8045 73.6963 75.9839 73.5414 76.2406Z" fill="white"/>
<path d="M40.0894 4.80883C50.6364 4.80883 61.1834 4.81359 71.7303 4.80408C73.2043 4.80289 74.6001 5.05837 75.8398 5.89133C77.8745 7.25901 78.9143 9.17684 78.9143 11.6472C78.9143 22.3213 78.9143 32.9941 78.9143 43.6682C78.9143 47.2924 78.9154 50.9165 78.9131 54.5395C78.9107 58.6794 76.048 61.5526 71.909 61.5549C60.5931 61.5597 49.2772 61.5597 37.9613 61.5454C37.4338 61.5443 37.1191 61.6892 36.8245 62.155C34.0589 66.5361 31.1808 70.8471 28.5168 75.2887C27.3103 77.3004 23.752 77.2137 22.562 75.5454C19.303 70.9754 15.8725 66.5278 12.5272 62.0207C12.2587 61.6595 11.9843 61.5276 11.5454 61.5383C10.3435 61.5668 9.14051 61.5538 7.93747 61.5466C4.13081 61.5229 1.18177 58.5712 1.18059 54.7581C1.17704 40.3803 1.17823 26.0037 1.18296 11.6258C1.18414 7.94819 3.85282 5.09045 7.50215 4.83616C7.87477 4.81002 8.25095 4.80883 8.62475 4.80883C19.1126 4.80765 29.6016 4.80883 40.0894 4.80883ZM72.1148 54.8865C72.1148 40.3958 72.1148 25.9751 72.1148 11.5438C50.7168 11.5438 29.3603 11.5438 7.98479 11.5438C7.98479 26.0049 7.98479 40.4243 7.98479 54.8865C10.0194 54.8865 12.0079 54.9269 13.9952 54.8734C15.4455 54.8342 16.5007 55.3748 17.363 56.556C19.8448 59.9567 22.3881 63.3124 24.9077 66.6846C25.0331 66.8522 25.1739 67.0066 25.3431 67.211C25.5075 66.9662 25.6293 66.7892 25.7453 66.6086C27.9053 63.2256 30.07 59.8462 32.217 56.4562C32.6997 55.6933 33.3314 55.174 34.2209 55.0255C34.7237 54.9423 35.2382 54.8912 35.7481 54.8912C47.5951 54.8841 59.4421 54.8853 71.2891 54.8853C71.5434 54.8865 71.799 54.8865 72.1148 54.8865Z" fill="#655858"/>
<path d="M73.5414 76.2405C73.6963 75.9839 73.8099 75.8056 73.9152 75.6215C75.6269 72.614 77.354 69.6149 79.0396 66.5931C79.7021 65.4061 80.678 64.8963 81.9958 64.9023C84.3202 64.9129 86.6435 64.9058 89.0153 64.9058C89.0153 50.4329 89.0153 36.0123 89.0153 21.5299C86.8044 21.5299 84.6065 21.5299 82.3566 21.5299C82.3566 19.2853 82.3566 17.1025 82.3566 14.8793C82.5009 14.8638 82.6523 14.8353 82.8025 14.8353C84.9117 14.8341 87.0208 14.8151 89.13 14.8424C92.9284 14.89 95.8159 17.8178 95.8171 21.6285C95.823 36.0242 95.823 50.4187 95.8171 64.8143C95.8159 68.5359 92.9781 71.4602 89.2755 71.5612C87.8181 71.6004 86.3584 71.5945 84.8999 71.5624C84.4042 71.5517 84.1286 71.7014 83.8802 72.1446C81.428 76.5055 78.9367 80.8438 76.4892 85.2059C75.8658 86.3169 74.9881 86.9265 73.7283 86.9027C72.3738 86.8778 71.1921 86.5462 70.448 85.2095C68.0088 80.8189 65.5164 76.4592 63.0607 72.0769C62.8465 71.6955 62.6088 71.5636 62.1806 71.5648C57.3909 71.579 52.6 71.579 47.8104 71.5695C46.0478 71.566 44.7087 70.5476 44.3586 68.9875C43.9315 67.0863 45.2304 65.2124 47.1668 64.9831C47.8104 64.907 48.4645 64.9046 49.1151 64.9034C54.1225 64.8975 59.1286 64.8975 64.1359 64.9046C64.6848 64.9058 65.2361 64.9462 65.7814 65.0092C66.7857 65.1245 67.5357 65.6116 68.0431 66.5206C69.7383 69.5602 71.4582 72.5855 73.1699 75.6155C73.2717 75.8009 73.3852 75.9803 73.5414 76.2405Z" fill="#6943FF"/>
<path d="M72.1147 54.8865C71.7989 54.8865 71.5434 54.8865 71.2891 54.8865C59.4421 54.8865 47.595 54.8853 35.748 54.8924C35.2382 54.8924 34.7236 54.9435 34.2209 55.0267C33.3313 55.1741 32.6996 55.6945 32.217 56.4574C30.07 59.8474 27.904 63.2268 25.7452 66.6098C25.6293 66.7904 25.5074 66.9663 25.343 67.2122C25.1727 67.0078 25.0319 66.8534 24.9077 66.6858C22.3869 63.3136 19.8448 59.958 17.363 56.5572C16.5006 55.3761 15.4466 54.8354 13.9952 54.8746C12.0079 54.9281 10.0194 54.8877 7.98474 54.8877C7.98474 40.4255 7.98474 26.0061 7.98474 11.545C29.3602 11.545 50.7168 11.545 72.1147 11.545C72.1147 25.9752 72.1147 40.3958 72.1147 54.8865ZM23.2362 28.1021C20.4776 28.0475 18.1484 30.2576 18.0869 32.9894C18.0219 35.8864 20.1878 38.2165 23.0091 38.2843C25.8469 38.352 28.1844 36.1121 28.2317 33.277C28.2778 30.4644 26.0528 28.158 23.2362 28.1021ZM62.0137 33.1938C62.0137 30.3598 59.7697 28.1021 56.9484 28.1021C54.1319 28.1009 51.8761 30.3669 51.8796 33.1938C51.8832 36.0242 54.1343 38.2854 56.9496 38.2866C59.7685 38.2866 62.0137 36.029 62.0137 33.1938ZM34.9862 33.1486C34.9708 35.9886 37.1959 38.2652 40.0066 38.2854C42.8231 38.3068 45.0967 36.061 45.1192 33.2378C45.1417 30.4038 42.9201 28.133 40.0965 28.1021C37.2858 28.0712 35.0004 30.3277 34.9862 33.1486Z" fill="white"/>
<path d="M23.2362 28.1021C26.0516 28.158 28.2779 30.4644 28.2317 33.277C28.1844 36.1109 25.8481 38.352 23.0091 38.2843C20.1878 38.2165 18.0219 35.8852 18.0869 32.9894C18.1485 30.2576 20.4788 28.0475 23.2362 28.1021Z" fill="#655858"/>
<path d="M62.0138 33.1938C62.0138 36.029 59.7686 38.2866 56.9496 38.2854C54.1355 38.2843 51.8843 36.023 51.8796 33.1926C51.8761 30.3658 54.1307 28.101 56.9485 28.101C59.7697 28.1021 62.0149 30.3586 62.0138 33.1938Z" fill="#655858"/>
<path d="M34.9863 33.1487C35.0016 30.3289 37.2859 28.0725 40.0965 28.1022C42.9213 28.1331 45.1417 30.4038 45.1192 33.2378C45.0967 36.0611 42.8231 38.3069 40.0066 38.2855C37.196 38.2641 34.9709 35.9874 34.9863 33.1487Z" fill="#655858"/>
</svg>
