<svg width="69" height="87" viewBox="0 0 69 87" fill="none" xmlns="http://www.w3.org/2000/svg">
<g clip-path="url(#clip0_11_282)">
<path d="M25.4254 43.4498C25.4254 30.2331 25.4245 17.0155 25.4263 3.79879C25.4263 1.98997 26.3811 0.597617 28.0143 0.146522C28.5389 0.00178143 29.1434 -0.0488335 29.6724 0.0541724C35.3366 1.15971 40.9928 2.30698 46.6517 3.43916C53.2103 4.75071 59.7689 6.06315 66.3293 7.3667C68.0274 7.70414 68.888 9.26698 68.9893 10.6309C69.0044 10.8369 68.9973 11.0447 68.9973 11.2525C68.9973 32.7577 68.9973 54.2637 68.9964 75.7688C68.9964 76.0796 69.0045 76.3931 68.968 76.7003C68.7849 78.2445 67.7811 79.3279 66.2492 79.6342C59.88 80.9102 53.509 82.1818 47.1398 83.4552C41.3644 84.6105 35.5891 85.764 29.8147 86.9228C27.496 87.3881 25.4343 85.7169 25.4298 83.3238C25.4182 77.7295 25.4263 72.1343 25.4263 66.54C25.4254 58.843 25.4254 51.146 25.4254 43.4498ZM38.0856 45.2968C40.118 45.3066 41.7405 43.7109 41.7539 41.689C41.7672 39.7106 40.1331 38.0749 38.1398 38.0696C36.1385 38.0642 34.5071 39.6724 34.4991 41.6597C34.4902 43.6701 36.0852 45.2871 38.0856 45.2968Z" fill="#655858"/>
<path d="M21.7615 7.25926C21.7615 9.67812 21.7615 12.0544 21.7615 14.4723C16.9411 14.4723 12.1464 14.4723 7.3152 14.4723C7.3152 33.8206 7.3152 53.1262 7.3152 72.4895C12.117 72.4895 16.9233 72.4895 21.7589 72.4895C21.7589 74.9226 21.7589 77.2988 21.7589 79.7292C21.6229 79.7363 21.4824 79.7505 21.341 79.7505C16.7028 79.7514 12.0637 79.7088 7.42544 79.7638C3.36243 79.8118 0.773486 76.7953 0.234715 74.3338C0.103134 73.7309 0.0106722 73.1058 0.0106722 72.4904C-0.00088562 53.1608 -0.00266374 33.8303 0.00444874 14.5007C0.00622687 10.5093 3.06193 7.3081 7.01647 7.25482C11.8467 7.18911 16.6788 7.23617 21.5091 7.23528C21.582 7.2344 21.654 7.2486 21.7615 7.25926Z" fill="#6943FF"/>
</g>
<defs>
<clipPath id="clip0_11_282">
<rect width="69" height="87" fill="white"/>
</clipPath>
</defs>
</svg>
