<svg width="94" height="87" viewBox="0 0 94 87" fill="none" xmlns="http://www.w3.org/2000/svg">
<g clip-path="url(#clip0_11_270)">
<path d="M46.4215 86.8457C34.0063 86.8457 21.5911 86.8525 9.17594 86.8434C3.67543 86.8366 0.00459141 83.1824 0.00459141 77.724C-0.00229571 54.88 0 32.0338 0.00229571 9.18979C0.00229571 3.67229 3.6915 0.0136212 9.24711 0.0113516C29.3805 0.0068123 49.5138 0.0204302 69.6449 3.36397e-06C72.8703 -0.00226628 75.4874 1.1439 77.588 3.56561C82.1886 8.8675 86.819 14.1444 91.4518 19.4191C93.1804 21.3891 94 23.6383 93.9954 26.2575C93.9702 43.2503 93.9885 60.2409 93.9793 77.2337C93.977 83.0304 89.9848 86.9886 84.1239 86.9954C71.5549 87.0091 58.9859 87 46.4192 87C46.4215 86.9478 46.4215 86.8956 46.4215 86.8457ZM43.7654 6.81801C43.3223 6.79078 42.9894 6.75446 42.6565 6.75446C31.9218 6.75219 21.1848 6.74765 10.4501 6.75673C7.95692 6.759 6.84809 7.88702 6.84809 10.3791C6.8458 32.4332 6.8458 54.4851 6.84809 76.5392C6.84809 79.088 7.97069 80.2024 10.535 80.2024C29.1417 80.2047 47.7461 80.2047 66.3528 80.2024C68.8437 80.2024 69.9961 79.0857 69.9938 76.6028C69.9869 62.7443 69.964 48.8859 69.9433 35.0274C69.9433 34.662 69.8997 34.2989 69.8698 33.829C69.374 33.829 68.963 33.829 68.5521 33.829C63.3179 33.829 58.0837 33.8427 52.8495 33.8245C47.4591 33.8063 43.7814 30.1726 43.7699 24.8617C43.7585 19.2738 43.7676 13.6837 43.7676 8.09582C43.7654 7.68956 43.7654 7.28329 43.7654 6.81801ZM76.9475 80.2001C79.2111 80.2001 81.4976 80.2001 83.7841 80.2001C84.0894 80.2001 84.3971 80.2115 84.7001 80.1842C86.1854 80.0413 87.1014 79.0699 87.1037 77.531C87.1129 60.3589 87.1175 43.1868 87.0807 26.0147C87.0784 25.3587 86.7938 24.5666 86.3668 24.0696C81.6904 18.6383 76.9865 13.2298 72.2069 7.88702C71.6788 7.29691 70.6573 6.94738 69.8239 6.85206C68.3547 6.68637 66.851 6.80667 65.3611 6.80667C63.4717 6.80667 61.5846 6.80667 59.4519 6.80667C59.9524 7.35819 60.2692 7.71906 60.5975 8.06859C65.7605 13.5271 70.9144 18.9947 76.1004 24.4305C76.7248 25.0841 76.9704 25.7378 76.9682 26.6343C76.9406 44.4442 76.9475 62.2541 76.9475 80.2001ZM50.882 7.99369C50.8453 8.57699 50.8132 8.8675 50.8109 9.15802C50.781 13.9129 50.7466 18.6678 50.7305 23.4227C50.7213 26.026 51.8646 27.154 54.4886 27.1586C58.917 27.1631 63.3454 27.1608 67.7761 27.1586C68.0975 27.1586 68.4189 27.1245 68.9699 27.0905C62.9024 20.6833 56.9909 14.444 50.882 7.99369Z" fill="#655858"/>
<path d="M38.306 59.4715C44.7225 59.4715 51.139 59.4806 57.5555 59.4647C58.9812 59.4624 60.191 59.8392 61.0175 61.0625C62.4041 63.112 61.3136 65.8628 58.8802 66.4211C58.4394 66.5233 57.9734 66.5596 57.5188 66.5596C44.7248 66.5664 31.9309 66.5687 19.1369 66.5619C16.5611 66.5596 14.8439 64.9572 15.0115 62.7647C15.1538 60.915 16.607 59.5487 18.5997 59.4851C20.2411 59.4329 21.8849 59.4715 23.5263 59.4715C28.4529 59.4715 33.3795 59.4715 38.306 59.4715Z" fill="#6943FF"/>
<path d="M38.4898 42.776C44.9453 42.776 51.3986 42.7669 57.8541 42.7828C60.1085 42.7896 61.6259 44.1332 61.7132 46.1146C61.7958 48.0348 60.3955 49.6326 58.4556 49.8255C58.2283 49.8482 57.9987 49.8391 57.7692 49.8391C44.8604 49.8391 31.9516 49.8414 19.0406 49.8369C16.8849 49.8369 15.2894 48.525 15.1218 46.6548C14.9336 44.5554 16.4671 42.8259 18.6687 42.7987C22.3717 42.751 26.0769 42.7805 29.7822 42.7783C32.684 42.776 35.5857 42.776 38.4898 42.776Z" fill="#6943FF"/>
</g>
<defs>
<clipPath id="clip0_11_270">
<rect width="94" height="87" fill="white"/>
</clipPath>
</defs>
</svg>
